<svg version="1.1" id="Layer_1" xmlns="http://www.w3.org/2000/svg" xmlns:xlink="http://www.w3.org/1999/xlink" x="0px" y="0px"
	 width="100%" viewBox="0 0 923 227" enable-background="new 0 0 923 227" xml:space="preserve">
<path fill="#F9F8F6" opacity="1.000000" stroke="none" 
	d="
M609.000000,228.000000 
	C406.000031,228.000000 203.500046,228.000000 1.000054,228.000000 
	C1.000036,152.333374 1.000036,76.666733 1.000018,1.000075 
	C308.666595,1.000050 616.333191,1.000050 923.999878,1.000025 
	C923.999878,76.666588 923.999878,152.333176 923.999939,227.999878 
	C819.166687,228.000000 714.333313,228.000000 609.000000,228.000000 
M481.041718,117.553741 
	C481.352905,117.654938 481.664124,117.756134 482.904114,118.014404 
	C493.943085,117.961929 504.982025,117.909462 516.503357,117.967163 
	C516.503357,117.967163 516.951294,117.756897 517.721313,117.442459 
	C517.467346,113.046158 517.213379,108.649857 516.511475,104.045868 
	C516.511475,104.045868 516.030396,104.156471 515.102539,103.988724 
	C504.061859,104.039452 493.021179,104.090179 481.445190,104.063850 
	C481.342133,104.367928 481.239044,104.672012 480.983215,105.890213 
	C481.030823,109.599419 481.078400,113.308624 481.041718,117.553741 
M603.896912,153.014526 
	C608.271545,152.962357 612.646179,152.910187 617.504761,152.969482 
	C617.504761,152.969482 617.949951,152.749313 618.691895,152.385208 
	C618.709534,115.639397 618.733215,78.893585 618.712341,42.147785 
	C618.711731,41.153027 618.229370,40.158539 617.514160,38.911400 
	C617.345703,38.955536 617.177246,38.999672 616.096680,38.844765 
	C611.729858,38.904358 607.363037,38.963947 602.389587,38.955547 
	C602.272278,39.301228 602.154968,39.646908 601.863159,40.916660 
	C601.950378,77.950317 602.037598,114.983971 602.046814,152.553543 
	C602.356262,152.655853 602.665771,152.758163 603.896912,153.014526 
M477.031097,83.116493 
	C476.975372,79.737671 476.919647,76.358849 476.999695,72.397079 
	C476.671478,72.050156 476.343292,71.703239 475.092743,71.174782 
	C469.858215,71.174782 464.623718,71.174782 458.866394,71.174782 
	C458.866394,64.478500 458.866394,58.235802 458.939850,51.297661 
	C457.295715,51.204163 455.651581,51.110664 453.082977,50.869984 
	C448.998169,50.869984 444.913361,50.869984 440.387878,50.869984 
	C440.387878,58.117142 440.387878,64.523537 440.387878,71.357239 
	C436.684265,71.357239 433.438538,71.357239 430.239807,71.357239 
	C429.393219,85.007271 429.393219,85.007271 440.394684,86.616463 
	C440.481354,87.850075 440.643768,89.143105 440.652191,90.437134 
	C440.754028,106.080086 440.701996,121.725464 440.974121,137.365265 
	C441.107971,145.055771 445.218597,151.241043 452.693604,152.735931 
	C459.879578,154.173050 467.465363,153.680481 474.879120,153.792633 
	C475.558502,153.802917 476.814270,152.074890 476.863647,151.106216 
	C477.082428,146.814331 476.958374,142.504990 476.958374,138.326172 
	C473.131897,138.563141 469.676575,138.763290 466.223297,138.994308 
	C461.410950,139.316208 459.151123,136.544418 458.587250,132.266602 
	C458.198486,129.317017 458.383575,126.286713 458.379578,123.292397 
	C458.363251,111.019470 458.372742,98.746506 458.372742,86.553909 
	C464.614227,85.960114 470.315552,85.417702 476.556488,84.949226 
	C476.656982,84.640350 476.757477,84.331474 477.031097,83.116493 
M767.565735,152.924240 
	C767.680359,152.621307 767.795044,152.318375 768.091431,151.091675 
	C768.088013,133.939285 768.216736,116.785164 767.993164,99.635635 
	C767.933350,95.048668 767.242188,90.357895 766.066284,85.920013 
	C763.304504,75.496918 755.704163,70.349945 744.974792,69.855743 
	C737.352600,69.504662 731.132690,71.694901 725.569092,78.043335 
	C725.355652,75.132652 725.215820,73.225121 725.077393,71.337906 
	C719.611084,71.337906 714.383484,71.337906 709.152039,71.337906 
	C709.152039,98.438454 709.152039,125.229927 709.077148,152.543762 
	C709.375549,152.644287 709.673950,152.744812 710.896240,153.005676 
	C715.604553,152.954407 720.312927,152.903137 725.547363,152.927963 
	C725.649719,152.627213 725.752014,152.326462 726.012512,151.096939 
	C726.016907,135.130905 725.957397,119.164398 726.076233,103.199211 
	C726.101929,99.741447 726.517639,96.238365 727.195923,92.844543 
	C728.332520,87.157471 732.549988,83.780350 737.991333,83.744423 
	C743.962158,83.705009 747.715576,86.363747 749.061096,92.328331 
	C749.965393,96.337219 750.474854,100.510254 750.541016,104.619820 
	C750.794983,120.404724 750.798828,136.193665 750.819702,152.597656 
	C751.204102,152.681107 751.588440,152.764557 752.896545,153.009048 
	C757.604248,152.956314 762.311890,152.903595 767.565735,152.924240 
M841.543030,116.316551 
	C841.323425,109.532875 841.784851,102.640419 840.722839,95.991280 
	C839.173218,86.288925 835.643372,76.919090 825.838928,72.708084 
	C809.351868,65.626877 790.888306,70.177216 783.170654,90.197350 
	C778.047485,103.487167 778.117432,117.208855 781.952393,130.738068 
	C787.205383,149.269669 802.443970,158.297195 820.373657,154.112610 
	C830.749329,151.691055 840.139343,140.070572 839.423767,130.369308 
	C836.629883,130.246964 833.810852,130.195221 831.003967,129.982605 
	C827.419678,129.711121 824.876526,130.020706 822.820312,134.098541 
	C819.122864,141.431488 808.086243,142.270279 802.888062,136.100723 
	C798.581299,130.989151 797.703247,124.715965 797.136902,118.028854 
	C804.617615,118.028854 811.594055,118.051865 818.570312,118.022461 
	C825.721680,117.992317 832.872864,117.910896 840.614746,117.919868 
	C840.787598,117.624901 840.960449,117.329933 841.543030,116.316551 
M159.194458,30.046881 
	C146.625610,31.040359 134.047455,31.929873 121.490273,33.053642 
	C105.810516,34.456860 94.887428,43.016216 91.067551,58.111656 
	C88.846451,66.889008 87.744919,76.053711 87.122383,85.111671 
	C85.372795,110.568062 85.974319,136.006195 89.102997,161.361588 
	C92.040817,185.170151 98.813087,193.672409 121.908051,196.848450 
	C141.105209,199.488464 160.649887,199.601318 180.962753,200.978683 
	C194.625122,200.929779 208.287506,200.880875 222.860397,200.955124 
	C238.148666,200.223633 253.442078,199.583023 268.722900,198.719818 
	C275.685120,198.326538 282.632538,197.586884 289.569183,196.841675 
	C306.777374,194.992966 317.407257,184.105728 319.849121,165.109909 
	C321.392029,153.107224 322.372314,141.017365 323.179443,128.938171 
	C324.659271,106.791672 323.128540,84.752174 319.523010,62.891415 
	C318.399445,56.079041 316.755280,49.264553 311.675598,43.836605 
	C304.712341,36.395908 295.748383,33.927521 286.155304,33.074928 
	C280.958405,32.613056 275.686127,33.055119 270.472748,32.711735 
	C259.625824,31.997295 248.795502,31.031477 237.034576,30.036652 
	C211.374649,30.084497 185.714737,30.132343 159.194458,30.046881 
M389.116516,125.290047 
	C388.785309,124.014748 388.421783,122.746864 388.127869,121.463028 
	C384.589691,106.008919 381.143219,90.532707 377.405731,75.127052 
	C377.030975,73.582344 374.994568,71.446915 373.580017,71.325531 
	C368.301392,70.872559 362.960541,71.144547 357.425568,71.144547 
	C357.613220,72.061996 357.698639,72.703056 357.876617,73.317314 
	C364.126221,94.890709 370.471832,116.436867 376.588318,138.047897 
	C378.420959,144.523041 380.105408,151.116928 380.941620,157.771545 
	C381.547607,162.593842 376.832153,167.655899 372.590393,167.964981 
	C368.989990,168.227325 364.068420,166.832291 362.099945,168.685883 
	C359.834534,170.819061 360.173279,175.716934 359.378296,179.413467 
	C359.274170,179.897659 358.927521,180.474976 359.084167,180.842560 
	C359.538879,181.909424 359.947937,183.447327 360.804443,183.824188 
	C375.718903,190.386566 391.793091,182.470169 396.296631,166.573547 
	C402.869446,143.372498 409.546509,120.200996 416.154663,97.009933 
	C418.576050,88.512222 420.927856,79.994667 423.341034,71.380409 
	C417.270325,71.380409 411.819489,71.380409 406.314423,71.380409 
	C401.389954,91.983727 396.519531,112.360924 391.649109,132.738113 
	C391.348083,132.740036 391.047058,132.741943 390.746002,132.743866 
	C390.257172,130.531967 389.768311,128.320068 389.116516,125.290047 
M696.372437,117.954552 
	C695.873352,110.206581 695.940125,102.370445 694.749695,94.730194 
	C692.683655,81.469757 682.194153,71.334206 670.239807,70.019699 
	C652.584290,68.078300 640.438354,74.404259 634.886353,89.119652 
	C629.099426,104.457581 629.248535,120.147331 635.189087,135.300552 
	C639.825867,147.127960 648.944458,154.298584 662.073425,154.979752 
	C675.885498,155.696365 685.741638,148.933609 691.567017,136.957886 
	C694.244324,131.453949 694.807129,124.921455 696.372437,117.954552 
M574.197205,97.736885 
	C579.331970,97.736885 584.466675,97.736885 590.292114,97.736885 
	C589.578674,94.355194 589.191528,91.261772 588.262329,88.340782 
	C584.851562,77.618958 577.351929,71.410820 566.289734,70.094971 
	C552.915955,68.504158 541.037720,71.729691 534.599670,84.630035 
	C525.460449,102.942902 525.866089,121.857780 534.706299,140.119400 
	C540.593384,152.280457 554.078735,157.255997 568.337036,154.180954 
	C577.550110,152.194000 588.527893,143.535721 589.341064,127.856232 
	C585.217957,127.581429 581.078552,127.039032 576.962585,127.180489 
	C575.583130,127.227905 573.567505,128.737183 573.032349,130.059647 
	C570.108826,137.284058 566.761230,140.121948 560.464600,139.996765 
	C554.413757,139.876465 549.993774,136.135452 548.042114,129.118042 
	C545.042236,118.331429 545.499817,107.399658 547.195740,96.485909 
	C547.518799,94.407318 548.416870,92.361816 549.346558,90.445099 
	C551.511658,85.981476 554.885315,82.983971 560.122681,83.056442 
	C565.257568,83.127487 568.908569,85.812286 571.061096,90.355499 
	C572.107361,92.563835 572.655334,95.008270 574.197205,97.736885 
z"/>
<path fill="#FF212F" opacity="1.000000" stroke="none" 
	d="
M180.040634,200.833618 
	C160.649887,199.601318 141.105209,199.488464 121.908051,196.848450 
	C98.813087,193.672409 92.040817,185.170151 89.102997,161.361588 
	C85.974319,136.006195 85.372795,110.568062 87.122383,85.111671 
	C87.744919,76.053711 88.846451,66.889008 91.067551,58.111656 
	C94.887428,43.016216 105.810516,34.456860 121.490273,33.053642 
	C134.047455,31.929873 146.625610,31.040359 159.945190,30.368000 
	C161.344940,30.790611 161.993881,30.980421 162.642960,30.980839 
	C186.496490,30.996216 210.350052,31.006495 234.203491,30.959097 
	C235.455643,30.956610 236.706757,30.444059 237.958359,30.168968 
	C248.795502,31.031477 259.625824,31.997295 270.472748,32.711735 
	C275.686127,33.055119 280.958405,32.613056 286.155304,33.074928 
	C295.748383,33.927521 304.712341,36.395908 311.675598,43.836605 
	C316.755280,49.264553 318.399445,56.079041 319.523010,62.891415 
	C323.128540,84.752174 324.659271,106.791672 323.179443,128.938171 
	C322.372314,141.017365 321.392029,153.107224 319.849121,165.109909 
	C317.407257,184.105728 306.777374,194.992966 289.569183,196.841675 
	C282.632538,197.586884 275.685120,198.326538 268.722900,198.719818 
	C253.442078,199.583023 238.148666,200.223633 222.087585,200.633972 
	C208.635071,200.208008 195.955475,200.082382 183.275574,200.035767 
	C182.198257,200.031799 181.118988,200.555206 180.040634,200.833618 
M175.675980,75.497208 
	C175.459488,76.107162 175.054611,76.716827 175.053650,77.327133 
	C175.014160,102.420685 174.991592,127.514351 175.067398,152.607697 
	C175.070740,153.717377 176.013184,154.824203 176.946884,156.487274 
	C178.739426,156.162323 180.819031,156.316147 182.280853,155.439636 
	C200.341171,144.610626 218.332550,133.665863 236.287003,122.661674 
	C239.878525,120.460434 243.240646,117.884911 247.977463,114.602722 
	C224.909027,100.811798 202.901993,87.612602 180.797562,74.578590 
	C179.787674,73.983093 177.900681,74.875061 175.675980,75.497208 
z"/>
<path fill="#12171A" opacity="1.000000" stroke="none" 
	d="
M389.197998,125.699104 
	C389.768311,128.320068 390.257172,130.531967 390.746002,132.743866 
	C391.047058,132.741943 391.348083,132.740036 391.649109,132.738113 
	C396.519531,112.360924 401.389954,91.983727 406.314423,71.380409 
	C411.819489,71.380409 417.270325,71.380409 423.341034,71.380409 
	C420.927856,79.994667 418.576050,88.512222 416.154663,97.009933 
	C409.546509,120.200996 402.869446,143.372498 396.296631,166.573547 
	C391.793091,182.470169 375.718903,190.386566 360.804443,183.824188 
	C359.947937,183.447327 359.538879,181.909424 359.084167,180.842560 
	C358.927521,180.474976 359.274170,179.897659 359.378296,179.413467 
	C360.173279,175.716934 359.834534,170.819061 362.099945,168.685883 
	C364.068420,166.832291 368.989990,168.227325 372.590393,167.964981 
	C376.832153,167.655899 381.547607,162.593842 380.941620,157.771545 
	C380.105408,151.116928 378.420959,144.523041 376.588318,138.047897 
	C370.471832,116.436867 364.126221,94.890709 357.876617,73.317314 
	C357.698639,72.703056 357.613220,72.061996 357.425568,71.144547 
	C362.960541,71.144547 368.301392,70.872559 373.580017,71.325531 
	C374.994568,71.446915 377.030975,73.582344 377.405731,75.127052 
	C381.143219,90.532707 384.589691,106.008919 388.127869,121.463028 
	C388.421783,122.746864 388.785309,124.014748 389.197998,125.699104 
z"/>
<path fill="#12171A" opacity="1.000000" stroke="none" 
	d="
M840.024109,117.851913 
	C832.872864,117.910896 825.721680,117.992317 818.570312,118.022461 
	C811.594055,118.051865 804.617615,118.028854 797.136902,118.028854 
	C797.703247,124.715965 798.581299,130.989151 802.888062,136.100723 
	C808.086243,142.270279 819.122864,141.431488 822.820312,134.098541 
	C824.876526,130.020706 827.419678,129.711121 831.003967,129.982605 
	C833.810852,130.195221 836.629883,130.246964 839.423767,130.369308 
	C840.139343,140.070572 830.749329,151.691055 820.373657,154.112610 
	C802.443970,158.297195 787.205383,149.269669 781.952393,130.738068 
	C778.117432,117.208855 778.047485,103.487167 783.170654,90.197350 
	C790.888306,70.177216 809.351868,65.626877 825.838928,72.708084 
	C835.643372,76.919090 839.173218,86.288925 840.722839,95.991280 
	C841.784851,102.640419 841.323425,109.532875 841.115967,116.759735 
	C840.377869,117.327606 840.156250,117.543945 840.024109,117.851913 
M799.972656,91.642265 
	C798.877258,95.663353 797.781921,99.684433 796.592590,104.050331 
	C806.486450,104.050331 815.374207,104.050331 824.235107,104.050331 
	C825.114014,93.418396 821.813354,86.191055 815.201050,83.932259 
	C809.031006,81.824524 804.640015,83.862122 799.972656,91.642265 
z"/>
<path fill="#121719" opacity="1.000000" stroke="none" 
	d="
M696.350586,118.404953 
	C694.807129,124.921455 694.244324,131.453949 691.567017,136.957886 
	C685.741638,148.933609 675.885498,155.696365 662.073425,154.979752 
	C648.944458,154.298584 639.825867,147.127960 635.189087,135.300552 
	C629.248535,120.147331 629.099426,104.457581 634.886353,89.119652 
	C640.438354,74.404259 652.584290,68.078300 670.239807,70.019699 
	C682.194153,71.334206 692.683655,81.469757 694.749695,94.730194 
	C695.940125,102.370445 695.873352,110.206581 696.350586,118.404953 
M648.843323,102.758759 
	C648.715088,104.916817 648.425781,107.079475 648.487244,109.232101 
	C648.713501,117.155479 648.226990,125.204071 652.169067,132.549805 
	C654.624512,137.125366 658.213013,139.951157 663.597778,139.969940 
	C669.207642,139.989517 673.127319,137.132477 675.198669,132.169098 
	C676.711426,128.544235 677.881592,124.654442 678.430542,120.773277 
	C679.794128,111.132385 679.372803,101.507866 675.677490,92.369278 
	C673.639587,87.329765 670.072144,83.886017 664.042114,83.754974 
	C658.169800,83.627365 654.093567,86.165878 651.964661,91.477478 
	C650.632690,94.800644 649.920288,98.372139 648.843323,102.758759 
z"/>
<path fill="#101518" opacity="1.000000" stroke="none" 
	d="
M709.152039,152.021393 
	C709.152039,125.229927 709.152039,98.438454 709.152039,71.337906 
	C714.383484,71.337906 719.611084,71.337906 725.077393,71.337906 
	C725.215820,73.225121 725.355652,75.132652 725.569092,78.043335 
	C731.132690,71.694901 737.352600,69.504662 744.974792,69.855743 
	C755.704163,70.349945 763.304504,75.496918 766.066284,85.920013 
	C767.242188,90.357895 767.933350,95.048668 767.993164,99.635635 
	C768.216736,116.785164 768.088013,133.939285 767.808350,151.640808 
	C767.282471,152.353363 767.113892,152.573669 767.019592,152.850861 
	C762.311890,152.903595 757.604248,152.956314 752.305115,152.729904 
	C751.476196,152.233124 751.203613,152.076569 750.895935,151.981094 
	C750.798828,136.193665 750.794983,120.404724 750.541016,104.619820 
	C750.474854,100.510254 749.965393,96.337219 749.061096,92.328331 
	C747.715576,86.363747 743.962158,83.705009 737.991333,83.744423 
	C732.549988,83.780350 728.332520,87.157471 727.195923,92.844543 
	C726.517639,96.238365 726.101929,99.741447 726.076233,103.199211 
	C725.957397,119.164398 726.016907,135.130905 725.749146,151.647568 
	C725.257141,152.363586 725.102295,152.581482 725.021240,152.851868 
	C720.312927,152.903137 715.604553,152.954407 710.346497,152.744644 
	C709.632935,152.258347 709.418030,152.104279 709.152039,152.021393 
z"/>
<path fill="#121719" opacity="1.000000" stroke="none" 
	d="
M573.813049,97.541351 
	C572.655334,95.008270 572.107361,92.563835 571.061096,90.355499 
	C568.908569,85.812286 565.257568,83.127487 560.122681,83.056442 
	C554.885315,82.983971 551.511658,85.981476 549.346558,90.445099 
	C548.416870,92.361816 547.518799,94.407318 547.195740,96.485909 
	C545.499817,107.399658 545.042236,118.331429 548.042114,129.118042 
	C549.993774,136.135452 554.413757,139.876465 560.464600,139.996765 
	C566.761230,140.121948 570.108826,137.284058 573.032349,130.059647 
	C573.567505,128.737183 575.583130,127.227905 576.962585,127.180489 
	C581.078552,127.039032 585.217957,127.581429 589.341064,127.856232 
	C588.527893,143.535721 577.550110,152.194000 568.337036,154.180954 
	C554.078735,157.255997 540.593384,152.280457 534.706299,140.119400 
	C525.866089,121.857780 525.460449,102.942902 534.599670,84.630035 
	C541.037720,71.729691 552.915955,68.504158 566.289734,70.094971 
	C577.351929,71.410820 584.851562,77.618958 588.262329,88.340782 
	C589.191528,91.261772 589.578674,94.355194 590.292114,97.736885 
	C584.466675,97.736885 579.331970,97.736885 573.813049,97.541351 
z"/>
<path fill="#111618" opacity="1.000000" stroke="none" 
	d="
M458.866394,51.993103 
	C458.866394,58.235802 458.866394,64.478500 458.866394,71.174782 
	C464.623718,71.174782 469.858215,71.174782 475.589844,71.505356 
	C476.345947,72.217300 476.604950,72.598663 476.863922,72.980026 
	C476.919647,76.358849 476.975372,79.737671 476.763000,83.666435 
	C476.270905,84.389114 476.111572,84.608749 476.016876,84.875298 
	C470.315552,85.417702 464.614227,85.960114 458.372742,86.553909 
	C458.372742,98.746506 458.363251,111.019470 458.379578,123.292397 
	C458.383575,126.286713 458.198486,129.317017 458.587250,132.266602 
	C459.151123,136.544418 461.410950,139.316208 466.223297,138.994308 
	C469.676575,138.763290 473.131897,138.563141 476.958374,138.326172 
	C476.958374,142.504990 477.082428,146.814331 476.863647,151.106216 
	C476.814270,152.074890 475.558502,153.802917 474.879120,153.792633 
	C467.465363,153.680481 459.879578,154.173050 452.693604,152.735931 
	C445.218597,151.241043 441.107971,145.055771 440.974121,137.365265 
	C440.701996,121.725464 440.754028,106.080086 440.652191,90.437134 
	C440.643768,89.143105 440.481354,87.850075 440.394684,86.616463 
	C429.393219,85.007271 429.393219,85.007271 430.239807,71.357239 
	C433.438538,71.357239 436.684265,71.357239 440.387878,71.357239 
	C440.387878,64.523537 440.387878,58.117142 440.387878,50.869984 
	C444.913361,50.869984 448.998169,50.869984 453.788635,51.213730 
	C455.951691,51.702682 457.409027,51.847893 458.866394,51.993103 
z"/>
<path fill="#151A1D" opacity="1.000000" stroke="none" 
	d="
M617.971680,39.163929 
	C618.229370,40.158539 618.711731,41.153027 618.712341,42.147785 
	C618.733215,78.893585 618.709534,115.639397 618.213989,152.445145 
	C617.396362,152.353821 617.157959,152.471466 617.020813,152.858017 
	C612.646179,152.910187 608.271545,152.962357 603.347473,152.749390 
	C602.627808,152.250519 602.403442,152.094971 602.124817,152.017624 
	C602.037598,114.983971 601.950378,77.950317 602.162903,40.351540 
	C602.726746,39.592495 602.904602,39.338200 602.996216,39.023537 
	C607.363037,38.963947 611.729858,38.904358 616.631348,39.098854 
	C617.434509,39.289940 617.703064,39.226936 617.971680,39.163929 
z"/>
<path fill="#12171A" opacity="1.000000" stroke="none" 
	d="
M516.020996,117.856995 
	C504.982025,117.909462 493.943085,117.961929 482.350647,117.748703 
	C481.627106,117.250595 481.403381,117.095535 481.126007,117.017830 
	C481.078400,113.308624 481.030823,109.599419 481.246033,105.345764 
	C481.741241,104.634903 481.898468,104.414764 481.980499,104.140907 
	C493.021179,104.090179 504.061859,104.039452 515.644043,104.211273 
	C516.185608,104.433830 516.598511,104.544937 516.598511,104.544937 
	C516.598511,104.544937 516.959412,104.253548 516.959412,104.253548 
	C517.213379,108.649857 517.467346,113.046158 517.230713,117.476074 
	C516.399963,117.355103 516.160278,117.470871 516.020996,117.856995 
z"/>
<path fill="#FE0524" opacity="1.000000" stroke="none" 
	d="
M237.496460,30.102810 
	C236.706757,30.444059 235.455643,30.956610 234.203491,30.959097 
	C210.350052,31.006495 186.496490,30.996216 162.642960,30.980839 
	C161.993881,30.980421 161.344940,30.790611 160.375366,30.434654 
	C185.714737,30.132343 211.374649,30.084497 237.496460,30.102810 
z"/>
<path fill="#FF0823" opacity="1.000000" stroke="none" 
	d="
M180.501694,200.906158 
	C181.118988,200.555206 182.198257,200.031799 183.275574,200.035767 
	C195.955475,200.082382 208.635071,200.208008 221.632324,200.572388 
	C208.287506,200.880875 194.625122,200.929779 180.501694,200.906158 
z"/>
<path fill="#08090A" opacity="1.000000" stroke="none" 
	d="
M458.903137,51.645382 
	C457.409027,51.847893 455.951691,51.702682 454.250885,51.287319 
	C455.651581,51.110664 457.295715,51.204163 458.903137,51.645382 
z"/>
<path fill="#08090A" opacity="1.000000" stroke="none" 
	d="
M476.931824,72.688553 
	C476.604950,72.598663 476.345947,72.217300 476.051025,71.596123 
	C476.343292,71.703239 476.671478,72.050156 476.931824,72.688553 
z"/>
<path fill="#080A0B" opacity="1.000000" stroke="none" 
	d="
M617.742920,39.037666 
	C617.703064,39.226936 617.434509,39.289940 617.087341,39.198380 
	C617.177246,38.999672 617.345703,38.955536 617.742920,39.037666 
z"/>
<path fill="#050708" opacity="1.000000" stroke="none" 
	d="
M767.292664,152.887543 
	C767.113892,152.573669 767.282471,152.353363 767.717529,152.102692 
	C767.795044,152.318375 767.680359,152.621307 767.292664,152.887543 
z"/>
<path fill="#050708" opacity="1.000000" stroke="none" 
	d="
M750.857788,152.289368 
	C751.203613,152.076569 751.476196,152.233124 751.843262,152.649384 
	C751.588440,152.764557 751.204102,152.681107 750.857788,152.289368 
z"/>
<path fill="#030406" opacity="1.000000" stroke="none" 
	d="
M725.284302,152.889923 
	C725.102295,152.581482 725.257141,152.363586 725.670044,152.111954 
	C725.752014,152.326462 725.649719,152.627213 725.284302,152.889923 
z"/>
<path fill="#030406" opacity="1.000000" stroke="none" 
	d="
M709.114624,152.282578 
	C709.418030,152.104279 709.632935,152.258347 709.884521,152.664474 
	C709.673950,152.744812 709.375549,152.644287 709.114624,152.282578 
z"/>
<path fill="#080A0B" opacity="1.000000" stroke="none" 
	d="
M617.262817,152.913757 
	C617.157959,152.471466 617.396362,152.353821 617.843018,152.627197 
	C617.949951,152.749313 617.504761,152.969482 617.262817,152.913757 
z"/>
<path fill="#080A0B" opacity="1.000000" stroke="none" 
	d="
M602.085815,152.285583 
	C602.403442,152.094971 602.627808,152.250519 602.886597,152.672363 
	C602.665771,152.758163 602.356262,152.655853 602.085815,152.285583 
z"/>
<path fill="#080A0B" opacity="1.000000" stroke="none" 
	d="
M602.692871,38.989540 
	C602.904602,39.338200 602.726746,39.592495 602.250122,39.889503 
	C602.154968,39.646908 602.272278,39.301228 602.692871,38.989540 
z"/>
<path fill="#08090A" opacity="1.000000" stroke="none" 
	d="
M476.286682,84.912262 
	C476.111572,84.608749 476.270905,84.389114 476.676392,84.119492 
	C476.757477,84.331474 476.656982,84.640350 476.286682,84.912262 
z"/>
<path fill="#020302" opacity="1.000000" stroke="none" 
	d="
M840.319458,117.885895 
	C840.156250,117.543945 840.377869,117.327606 840.911133,117.118942 
	C840.960449,117.329933 840.787598,117.624901 840.319458,117.885895 
z"/>
<path fill="#050607" opacity="1.000000" stroke="none" 
	d="
M516.262207,117.912079 
	C516.160278,117.470871 516.399963,117.355103 516.845703,117.633293 
	C516.951294,117.756897 516.503357,117.967163 516.262207,117.912079 
z"/>
<path fill="#050607" opacity="1.000000" stroke="none" 
	d="
M481.083862,117.285782 
	C481.403381,117.095535 481.627106,117.250595 481.886261,117.670166 
	C481.664124,117.756134 481.352905,117.654938 481.083862,117.285782 
z"/>
<path fill="#050607" opacity="1.000000" stroke="none" 
	d="
M516.735474,104.149704 
	C516.959412,104.253548 516.598511,104.544937 516.598511,104.544937 
	C516.598511,104.544937 516.185608,104.433830 516.108032,104.295151 
	C516.030396,104.156471 516.511475,104.045868 516.735474,104.149704 
z"/>
<path fill="#050607" opacity="1.000000" stroke="none" 
	d="
M481.712830,104.102379 
	C481.898468,104.414764 481.741241,104.634903 481.322388,104.888702 
	C481.239044,104.672012 481.342133,104.367928 481.712830,104.102379 
z"/>
<path fill="#F9F7F6" opacity="1.000000" stroke="none" 
	d="
M176.422211,75.074234 
	C177.900681,74.875061 179.787674,73.983093 180.797562,74.578590 
	C202.901993,87.612602 224.909027,100.811798 247.977463,114.602722 
	C243.240646,117.884911 239.878525,120.460434 236.287003,122.661674 
	C218.332550,133.665863 200.341171,144.610626 182.280853,155.439636 
	C180.819031,156.316147 178.739426,156.162323 176.712296,155.744858 
	C176.459213,128.359711 176.440720,101.716972 176.422211,75.074234 
z"/>
<path fill="#FE0522" opacity="1.000000" stroke="none" 
	d="
M176.049103,75.285721 
	C176.440720,101.716972 176.459213,128.359711 176.497955,155.467407 
	C176.013184,154.824203 175.070740,153.717377 175.067398,152.607697 
	C174.991592,127.514351 175.014160,102.420685 175.053650,77.327133 
	C175.054611,76.716827 175.459488,76.107162 176.049103,75.285721 
z"/>
<path fill="#F6F6F4" opacity="1.000000" stroke="none" 
	d="
M800.073486,91.273727 
	C804.640015,83.862122 809.031006,81.824524 815.201050,83.932259 
	C821.813354,86.191055 825.114014,93.418396 824.235107,104.050331 
	C815.374207,104.050331 806.486450,104.050331 796.592590,104.050331 
	C797.781921,99.684433 798.877258,95.663353 800.073486,91.273727 
z"/>
<path fill="#F7F7F5" opacity="1.000000" stroke="none" 
	d="
M648.886597,102.295479 
	C649.920288,98.372139 650.632690,94.800644 651.964661,91.477478 
	C654.093567,86.165878 658.169800,83.627365 664.042114,83.754974 
	C670.072144,83.886017 673.639587,87.329765 675.677490,92.369278 
	C679.372803,101.507866 679.794128,111.132385 678.430542,120.773277 
	C677.881592,124.654442 676.711426,128.544235 675.198669,132.169098 
	C673.127319,137.132477 669.207642,139.989517 663.597778,139.969940 
	C658.213013,139.951157 654.624512,137.125366 652.169067,132.549805 
	C648.226990,125.204071 648.713501,117.155479 648.487244,109.232101 
	C648.425781,107.079475 648.715088,104.916817 648.886597,102.295479 
z"/>
</svg>